<?xml version="1.0" encoding="utf-8"?>
<svg viewBox="0 1.789 161.529 45.986" xmlns="http://www.w3.org/2000/svg">
    <defs>
        <style>
            .cls-1{fill:#45413c;opacity:0.15;}.cls-2{fill:#f0d5a8;}.cls-3{fill:#debb7e;}.cls-4{fill:none;}.cls-4,.cls-5,.cls-8,.cls-9{stroke:#4f4b45;stroke-linejoin:round;}.cls-5{fill:#fff;}.cls-6,.cls-8{fill:#fff5e3;}.cls-7,.cls-9{fill:#f7e5c6;}
            .text {
                fill: rgb(51, 51, 51);
            }
            @media (prefers-color-scheme: dark) {
                .text {
                    fill: rgb(199, 199, 199);
                }
            }
        </style>
    </defs>
    <g id="_Group_" data-name="&lt;Group&gt;">
        <ellipse id="_Ellipse_" data-name="&lt;Ellipse&gt;" class="cls-1" cx="24" cy="43.01" rx="15.25" ry="1.99"/>
        <path id="_Path_" data-name="&lt;Path&gt;" class="cls-2"
              d="M5.78,36l16.74,6.7A4,4,0,0,0,24,43V20.75L4.63,13a2.68,2.68,0,0,0-.52,1.59v19A2.65,2.65,0,0,0,5.78,36Z"/>
        <path id="_Path_2" data-name="&lt;Path&gt;" class="cls-3"
              d="M5.78,31a2.64,2.64,0,0,1-1.67-2.46v5A2.65,2.65,0,0,0,5.78,36l16.74,6.7A4,4,0,0,0,24,43V38a4,4,0,0,1-1.48-.29Z"/>
        <path id="_Path_3" data-name="&lt;Path&gt;" class="cls-4"
              d="M5.78,36l16.74,6.7A4,4,0,0,0,24,43V20.75L4.63,13a2.68,2.68,0,0,0-.52,1.59v19A2.65,2.65,0,0,0,5.78,36Z"/>
        <path id="_Path_4" data-name="&lt;Path&gt;" class="cls-2"
              d="M42.22,36a2.65,2.65,0,0,0,1.67-2.46V14.59A2.68,2.68,0,0,0,43.37,13L24,20.75V43a4,4,0,0,0,1.48-.29Z"/>
        <path id="_Path_5" data-name="&lt;Path&gt;" class="cls-3"
              d="M42.22,31.22l-16.74,6.7A4,4,0,0,1,24,38.2V43a4,4,0,0,0,1.48-.29L42.22,36a2.65,2.65,0,0,0,1.67-2.46V28.76A2.65,2.65,0,0,1,42.22,31.22Z"/>
        <path id="_Path_6" data-name="&lt;Path&gt;" class="cls-4"
              d="M42.22,36a2.65,2.65,0,0,0,1.67-2.46V14.59A2.68,2.68,0,0,0,43.37,13L24,20.75V43a4,4,0,0,0,1.48-.29Z"/>
        <path id="_Path_7" data-name="&lt;Path&gt;" class="cls-2"
              d="M42.22,12.12,25.48,5.43a4,4,0,0,0-3,0L5.78,12.12A2.73,2.73,0,0,0,4.63,13L24,20.75,43.37,13A2.73,2.73,0,0,0,42.22,12.12Z"/>
        <path id="_Path_8" data-name="&lt;Path&gt;" class="cls-3"
              d="M42.22,12.12l-.56-.22-2-.79-9.14,3.66a17.65,17.65,0,0,1-13.1,0L8.31,11.11l-2.53,1A2.73,2.73,0,0,0,4.63,13L24,20.75,43.37,13A2.73,2.73,0,0,0,42.22,12.12Z"/>
        <path id="_Path_9" data-name="&lt;Path&gt;" class="cls-4"
              d="M42.22,12.12,25.48,5.43a4,4,0,0,0-3,0L5.78,12.12A2.73,2.73,0,0,0,4.63,13L24,20.75,43.37,13A2.73,2.73,0,0,0,42.22,12.12Z"/>
        <polygon id="_Path_10" data-name="&lt;Path&gt;" class="cls-5"
                 points="33.41 27.49 27.68 29.78 27.68 23.29 33.41 21 33.41 27.49"/>
        <polygon id="_Path_11" data-name="&lt;Path&gt;" class="cls-6"
                 points="17.2 18.03 37.09 10.07 30.96 7.62 11.07 15.58 17.2 18.03"/>
        <path id="_Path_12" data-name="&lt;Path&gt;" class="cls-7"
              d="M17.45,14.77l-2.18-.87-4.2,1.68L17.2,18,22.39,16A17.8,17.8,0,0,1,17.45,14.77Z"/>
        <polygon id="_Path_13" data-name="&lt;Path&gt;" class="cls-4"
                 points="17.2 18.03 37.09 10.07 30.96 7.62 11.07 15.58 17.2 18.03"/>
        <polygon id="_Path_14" data-name="&lt;Path&gt;" class="cls-8"
                 points="11.07 15.58 11.07 20.75 17.23 23.21 17.2 18.03 11.07 15.58"/>
        <polygon id="_Path_15" data-name="&lt;Path&gt;" class="cls-9"
                 points="11.07 34.34 11.07 38.15 17.23 40.62 17.2 36.8 11.07 34.34"/>
    </g>
    <path d="M 52.288 29.674 C 54.912 29.674 56.272 28.122 56.272 25.482 L 56.272 25.242 C 56.272 22.282 54.672 21.37 53.184 21.37 C 52.128 21.37 51.408 21.642 50.8 22.01 L 50.72 22.01 L 50.72 18.026 L 49.36 18.026 L 49.36 29.258 C 50.032 29.498 51.376 29.674 52.288 29.674 Z M 52.384 28.522 C 51.584 28.522 51.056 28.394 50.72 28.266 L 50.72 22.986 C 51.088 22.826 51.808 22.538 52.544 22.538 C 54.144 22.538 54.88 23.242 54.88 25.338 L 54.88 25.69 C 54.88 27.914 53.68 28.522 52.384 28.522 Z M 57.525 29.482 L 58.901 29.482 L 58.901 21.53 L 57.525 21.53 Z M 57.525 19.962 L 58.917 19.962 L 58.917 18.538 L 57.525 18.538 Z M 60.626 29.482 L 61.986 29.482 L 61.986 23.082 C 62.562 22.81 63.378 22.554 64.082 22.554 C 65.33 22.554 65.634 22.938 65.634 23.85 L 65.634 29.482 L 66.978 29.482 L 66.978 23.562 C 66.978 22.026 66.242 21.37 64.674 21.37 C 63.698 21.37 62.674 21.738 62.002 22.218 L 61.922 22.218 L 61.922 21.53 L 60.626 21.53 Z M 70.555 29.626 C 71.611 29.626 72.235 29.258 72.635 28.81 L 72.715 28.81 L 72.859 29.482 L 73.947 29.482 L 73.947 23.722 C 73.947 22.122 72.939 21.37 71.179 21.37 C 70.219 21.37 69.467 21.53 68.747 21.802 L 68.747 22.778 C 69.227 22.682 69.867 22.554 70.651 22.554 C 72.075 22.554 72.603 22.842 72.603 24.058 L 72.603 24.794 L 70.491 25.05 C 68.987 25.242 68.091 25.994 68.091 27.37 C 68.091 28.906 69.131 29.626 70.555 29.626 Z M 70.891 28.57 C 70.059 28.57 69.499 28.17 69.499 27.338 C 69.499 26.474 69.931 26.106 70.843 26.01 L 72.603 25.834 L 72.603 28.026 C 72.251 28.346 71.595 28.57 70.891 28.57 Z M 75.572 29.482 L 76.932 29.482 L 76.932 23.274 C 77.492 22.906 78.244 22.666 78.996 22.666 C 79.124 22.666 79.38 22.682 79.604 22.714 L 79.604 21.498 C 79.524 21.466 79.3 21.434 79.108 21.434 C 78.244 21.434 77.38 21.882 76.948 22.41 L 76.868 22.41 L 76.868 21.53 L 75.572 21.53 Z M 81.022 31.866 C 82.35 31.866 83.054 31.722 83.598 30.202 L 86.814 21.53 L 85.486 21.53 L 83.422 27.162 L 83.358 27.162 L 81.118 21.53 L 79.646 21.53 L 82.702 28.97 L 82.334 30.01 C 82.094 30.586 81.502 30.746 80.766 30.746 C 80.478 30.746 80.19 30.714 79.998 30.682 L 79.998 31.642 C 80.222 31.754 80.638 31.866 81.022 31.866 Z M 87.403 24.874 L 92.667 24.874 L 92.667 23.706 L 87.403 23.706 Z M 96.959 29.626 C 98.015 29.626 98.783 29.306 99.247 28.842 L 99.327 28.842 L 99.455 29.482 L 100.607 29.482 L 100.607 18.026 L 99.247 18.026 L 99.247 21.866 C 98.831 21.626 98.191 21.37 97.215 21.37 C 95.183 21.37 93.679 22.634 93.679 25.53 L 93.679 25.754 C 93.679 28.682 95.439 29.626 96.959 29.626 Z M 97.407 28.506 C 96.031 28.506 95.103 27.85 95.103 25.706 L 95.103 25.354 C 95.103 23.274 95.935 22.538 97.391 22.538 C 98.191 22.538 98.911 22.73 99.247 23.002 L 99.247 27.882 C 98.911 28.154 98.287 28.506 97.407 28.506 Z M 102.316 29.482 L 103.692 29.482 L 103.692 21.53 L 102.316 21.53 Z M 102.316 19.962 L 103.708 19.962 L 103.708 18.538 L 102.316 18.538 Z M 107.465 29.61 C 109.193 29.61 110.297 28.81 110.297 27.242 C 110.297 25.834 109.673 25.322 108.121 24.906 L 107.369 24.714 C 106.553 24.49 106.217 24.234 106.217 23.578 C 106.217 22.874 106.729 22.522 107.753 22.522 C 108.649 22.522 109.465 22.746 109.881 22.938 L 109.881 21.834 C 109.433 21.61 108.761 21.37 107.705 21.37 C 105.801 21.37 104.921 22.314 104.921 23.722 C 104.921 25.098 105.753 25.626 106.905 25.93 L 107.657 26.138 C 108.633 26.394 108.969 26.73 108.969 27.37 C 108.969 28.058 108.457 28.474 107.257 28.474 C 106.137 28.474 105.561 28.25 104.889 27.978 L 104.889 29.05 C 105.545 29.434 106.441 29.61 107.465 29.61 Z M 114.016 29.562 C 114.736 29.562 115.056 29.402 115.392 29.258 L 115.392 28.33 C 115.072 28.41 114.704 28.458 114.384 28.458 C 113.488 28.458 113.232 28.17 113.232 27.418 L 113.232 22.666 L 115.232 22.666 L 115.232 21.53 L 113.232 21.53 L 113.232 19.642 L 111.872 19.642 L 111.872 21.53 L 110.736 21.53 L 110.736 22.666 L 111.872 22.666 L 111.872 27.61 C 111.872 29.018 112.752 29.562 114.016 29.562 Z M 116.456 29.482 L 117.816 29.482 L 117.816 23.274 C 118.376 22.906 119.128 22.666 119.88 22.666 C 120.008 22.666 120.264 22.682 120.488 22.714 L 120.488 21.498 C 120.408 21.466 120.184 21.434 119.992 21.434 C 119.128 21.434 118.264 21.882 117.832 22.41 L 117.752 22.41 L 117.752 21.53 L 116.456 21.53 Z M 121.434 29.482 L 122.81 29.482 L 122.81 21.53 L 121.434 21.53 Z M 121.434 19.962 L 122.826 19.962 L 122.826 18.538 L 121.434 18.538 Z M 127.455 29.674 C 130.079 29.674 131.439 28.122 131.439 25.482 L 131.439 25.242 C 131.439 22.282 129.839 21.37 128.351 21.37 C 127.295 21.37 126.575 21.642 125.967 22.01 L 125.887 22.01 L 125.887 18.026 L 124.527 18.026 L 124.527 29.258 C 125.199 29.498 126.543 29.674 127.455 29.674 Z M 127.551 28.522 C 126.751 28.522 126.223 28.394 125.887 28.266 L 125.887 22.986 C 126.255 22.826 126.975 22.538 127.711 22.538 C 129.311 22.538 130.047 23.242 130.047 25.338 L 130.047 25.69 C 130.047 27.914 128.847 28.522 127.551 28.522 Z M 135.052 29.626 C 136.012 29.626 136.828 29.258 137.484 28.794 L 137.564 28.794 L 137.724 29.482 L 138.876 29.482 L 138.876 21.53 L 137.5 21.53 L 137.5 27.882 C 136.94 28.17 136.268 28.458 135.452 28.458 C 134.3 28.458 133.964 28.042 133.964 27.066 L 133.964 21.53 L 132.62 21.53 L 132.62 27.29 C 132.62 28.826 133.468 29.626 135.052 29.626 Z M 143.111 29.562 C 143.831 29.562 144.151 29.402 144.487 29.258 L 144.487 28.33 C 144.167 28.41 143.799 28.458 143.479 28.458 C 142.583 28.458 142.327 28.17 142.327 27.418 L 142.327 22.666 L 144.327 22.666 L 144.327 21.53 L 142.327 21.53 L 142.327 19.642 L 140.967 19.642 L 140.967 21.53 L 139.831 21.53 L 139.831 22.666 L 140.967 22.666 L 140.967 27.61 C 140.967 29.018 141.847 29.562 143.111 29.562 Z M 148.671 29.626 C 150.847 29.626 152.319 28.106 152.319 25.61 L 152.319 25.354 C 152.319 22.858 150.959 21.37 148.687 21.37 C 146.511 21.37 145.055 22.906 145.055 25.402 L 145.055 25.674 C 145.055 28.154 146.383 29.626 148.671 29.626 Z M 148.703 28.506 C 147.471 28.506 146.463 27.85 146.463 25.706 L 146.463 25.258 C 146.463 23.482 147.263 22.49 148.655 22.49 C 149.887 22.49 150.895 23.178 150.895 25.322 L 150.895 25.754 C 150.895 27.53 150.095 28.506 148.703 28.506 Z M 153.481 29.482 L 154.841 29.482 L 154.841 23.274 C 155.401 22.906 156.153 22.666 156.905 22.666 C 157.033 22.666 157.289 22.682 157.513 22.714 L 157.513 21.498 C 157.433 21.466 157.209 21.434 157.017 21.434 C 156.153 21.434 155.289 21.882 154.857 22.41 L 154.777 22.41 L 154.777 21.53 L 153.481 21.53 Z"
          class="text"/>
</svg>
